<?xml version="1.0" encoding="UTF-8"?>
<svg id="svg8" xmlns="http://www.w3.org/2000/svg" viewBox="0 0 221.29 158.23">
  <defs>
    <style>
      .cls-1 {
        fill: #4fd5ee;
      }
    </style>
  </defs>
  <path id="path3551" class="cls-1" d="M110.49,35.91c-33.72.09-61,27.44-61,61.16,0,33.78,27.38,61.16,61.16,61.16h0c15.64,0,30.68-5.99,42.04-16.75h-42.04c-24.53,0-44.41-19.89-44.42-44.42,0-24.53,19.88-44.42,44.42-44.42h0c24.53,0,44.42,19.88,44.42,44.42h0v42.04c10.75-11.36,16.74-26.4,16.74-42.04,0-33.78-27.38-61.16-61.16-61.16h0c-.05,0-.11,0-.16,0h0Z"/>
  <path id="path3553" class="cls-1" d="M110.64,0C57.13,0,13.56,43.56,13.56,97.07h16.62c0-44.55,35.92-80.5,80.47-80.5s80.5,35.95,80.5,80.5h16.59C207.73,43.56,164.16,0,110.64,0Z"/>
  <path id="path3555" class="cls-1" d="M21.86,88.79c-11.97,0-21.86,9.89-21.86,21.86v20.82c0,11.97,9.89,21.88,21.86,21.88s21.88-9.91,21.88-21.88v-20.82c0-11.97-9.91-21.86-21.88-21.86ZM21.86,105.37c3.07,0,5.3,2.21,5.3,5.27v20.82c0,3.07-2.23,5.27-5.3,5.27s-5.27-2.21-5.27-5.27v-20.82c0-3.07,2.21-5.27,5.27-5.27Z"/>
  <path id="path3557" class="cls-1" d="M199.43,88.79c-11.97,0-21.86,9.89-21.86,21.86v20.82c0,11.97,9.89,21.88,21.86,21.88s21.86-9.91,21.86-21.88v-20.82c0-11.97-9.89-21.86-21.86-21.86ZM199.43,105.37c3.07,0,5.27,2.21,5.27,5.27v20.82c0,3.07-2.21,5.27-5.27,5.27s-5.27-2.21-5.27-5.27v-20.82c0-3.07,2.21-5.27,5.27-5.27Z"/>
</svg>