<svg width="252" height="176" viewBox="0 0 252 176" fill="none" xmlns="http://www.w3.org/2000/svg">
<g filter="url(#filter0_d_1046_37683)">
<path d="M4 7.99999C4 5.23857 6.23858 3 9 3H243C245.761 3 248 5.23858 248 8V170.016H4V7.99999Z" fill="white"/>
<path d="M20 3H9C6.23858 3 4 5.23858 4 8V170H20V3Z" fill="#1E293B"/>
<g filter="url(#filter1_d_1046_37683)">
<path d="M20 3H243C245.761 3 248 5.23858 248 8V16H20V3Z" fill="white"/>
</g>
<rect x="211" y="6" width="19" height="3" rx="1.5" fill="#D9D9D9"/>
<rect x="223" y="11" width="7" height="2" rx="1" fill="#D9D9D9"/>
<rect opacity="0.8" x="9" y="24" width="4" height="4" fill="white"/>
<rect x="202" y="7" width="4" height="4" fill="#D9D9D9"/>
<rect x="194" y="7" width="4" height="4" fill="#D9D9D9"/>
<rect x="186" y="7" width="4" height="4" fill="#D9D9D9"/>
<rect x="178" y="7" width="4" height="4" fill="#D9D9D9"/>
<rect x="170" y="7" width="4" height="4" fill="#D9D9D9"/>
<rect x="162" y="7" width="4" height="4" fill="#D9D9D9"/>
<rect opacity="0.8" x="9" y="34" width="4" height="4" fill="white"/>
<rect opacity="0.8" x="9" y="44" width="4" height="4" fill="white"/>
<rect opacity="0.8" x="9" y="54" width="4" height="4" fill="white"/>
<rect opacity="0.8" x="9" y="64" width="4" height="4" fill="white"/>
<rect opacity="0.8" x="9" y="74" width="4" height="4" fill="white"/>
<circle cx="235.5" cy="9.5" r="4.5" fill="#D9D9D9"/>
</g>
<path d="M33.398 10.208H34.742V11H32.372V6.788H33.398V10.208ZM37.2234 11.042C36.8274 11.042 36.4634 10.95 36.1314 10.766C35.8034 10.582 35.5414 10.326 35.3454 9.998C35.1534 9.666 35.0574 9.294 35.0574 8.882C35.0574 8.47 35.1534 8.1 35.3454 7.772C35.5414 7.444 35.8034 7.188 36.1314 7.004C36.4634 6.82 36.8274 6.728 37.2234 6.728C37.6194 6.728 37.9814 6.82 38.3094 7.004C38.6414 7.188 38.9014 7.444 39.0894 7.772C39.2814 8.1 39.3774 8.47 39.3774 8.882C39.3774 9.294 39.2814 9.666 39.0894 9.998C38.8974 10.326 38.6374 10.582 38.3094 10.766C37.9814 10.95 37.6194 11.042 37.2234 11.042ZM37.2234 10.106C37.5594 10.106 37.8274 9.994 38.0274 9.77C38.2314 9.546 38.3334 9.25 38.3334 8.882C38.3334 8.51 38.2314 8.214 38.0274 7.994C37.8274 7.77 37.5594 7.658 37.2234 7.658C36.8834 7.658 36.6114 7.768 36.4074 7.988C36.2074 8.208 36.1074 8.506 36.1074 8.882C36.1074 9.254 36.2074 9.552 36.4074 9.776C36.6114 9.996 36.8834 10.106 37.2234 10.106ZM42.7442 8.12C42.6682 7.98 42.5582 7.874 42.4142 7.802C42.2742 7.726 42.1082 7.688 41.9162 7.688C41.5842 7.688 41.3182 7.798 41.1182 8.018C40.9182 8.234 40.8182 8.524 40.8182 8.888C40.8182 9.276 40.9222 9.58 41.1302 9.8C41.3422 10.016 41.6322 10.124 42.0002 10.124C42.2522 10.124 42.4642 10.06 42.6362 9.932C42.8122 9.804 42.9402 9.62 43.0202 9.38H41.7182V8.624H43.9502V9.578C43.8742 9.834 43.7442 10.072 43.5602 10.292C43.3802 10.512 43.1502 10.69 42.8702 10.826C42.5902 10.962 42.2742 11.03 41.9222 11.03C41.5062 11.03 41.1342 10.94 40.8062 10.76C40.4822 10.576 40.2282 10.322 40.0442 9.998C39.8642 9.674 39.7742 9.304 39.7742 8.888C39.7742 8.472 39.8642 8.102 40.0442 7.778C40.2282 7.45 40.4822 7.196 40.8062 7.016C41.1302 6.832 41.5002 6.74 41.9162 6.74C42.4202 6.74 42.8442 6.862 43.1882 7.106C43.5362 7.35 43.7662 7.688 43.8782 8.12H42.7442ZM46.5105 11.042C46.1145 11.042 45.7505 10.95 45.4185 10.766C45.0905 10.582 44.8285 10.326 44.6325 9.998C44.4405 9.666 44.3445 9.294 44.3445 8.882C44.3445 8.47 44.4405 8.1 44.6325 7.772C44.8285 7.444 45.0905 7.188 45.4185 7.004C45.7505 6.82 46.1145 6.728 46.5105 6.728C46.9065 6.728 47.2685 6.82 47.5965 7.004C47.9285 7.188 48.1885 7.444 48.3765 7.772C48.5685 8.1 48.6645 8.47 48.6645 8.882C48.6645 9.294 48.5685 9.666 48.3765 9.998C48.1845 10.326 47.9245 10.582 47.5965 10.766C47.2685 10.95 46.9065 11.042 46.5105 11.042ZM46.5105 10.106C46.8465 10.106 47.1145 9.994 47.3145 9.77C47.5185 9.546 47.6205 9.25 47.6205 8.882C47.6205 8.51 47.5185 8.214 47.3145 7.994C47.1145 7.77 46.8465 7.658 46.5105 7.658C46.1705 7.658 45.8985 7.768 45.6945 7.988C45.4945 8.208 45.3945 8.506 45.3945 8.882C45.3945 9.254 45.4945 9.552 45.6945 9.776C45.8985 9.996 46.1705 10.106 46.5105 10.106Z" fill="#1E293B"/>
<defs>
<filter id="filter0_d_1046_37683" x="0" y="0" width="252" height="175.016" filterUnits="userSpaceOnUse" color-interpolation-filters="sRGB">
<feFlood flood-opacity="0" result="BackgroundImageFix"/>
<feColorMatrix in="SourceAlpha" type="matrix" values="0 0 0 0 0 0 0 0 0 0 0 0 0 0 0 0 0 0 127 0" result="hardAlpha"/>
<feOffset dy="1"/>
<feGaussianBlur stdDeviation="2"/>
<feComposite in2="hardAlpha" operator="out"/>
<feColorMatrix type="matrix" values="0 0 0 0 0 0 0 0 0 0 0 0 0 0 0 0 0 0 0.16 0"/>
<feBlend mode="normal" in2="BackgroundImageFix" result="effect1_dropShadow_1046_37683"/>
<feBlend mode="normal" in="SourceGraphic" in2="effect1_dropShadow_1046_37683" result="shape"/>
</filter>
<filter id="filter1_d_1046_37683" x="16" y="0" width="236" height="21" filterUnits="userSpaceOnUse" color-interpolation-filters="sRGB">
<feFlood flood-opacity="0" result="BackgroundImageFix"/>
<feColorMatrix in="SourceAlpha" type="matrix" values="0 0 0 0 0 0 0 0 0 0 0 0 0 0 0 0 0 0 127 0" result="hardAlpha"/>
<feOffset dy="1"/>
<feGaussianBlur stdDeviation="2"/>
<feComposite in2="hardAlpha" operator="out"/>
<feColorMatrix type="matrix" values="0 0 0 0 0 0 0 0 0 0 0 0 0 0 0 0 0 0 0.16 0"/>
<feBlend mode="normal" in2="BackgroundImageFix" result="effect1_dropShadow_1046_37683"/>
<feBlend mode="normal" in="SourceGraphic" in2="effect1_dropShadow_1046_37683" result="shape"/>
</filter>
</defs>
</svg>
