<svg width="252" height="176" viewBox="0 0 252 176" fill="none" xmlns="http://www.w3.org/2000/svg">
<g filter="url(#filter0_d_1046_37706)">
<path d="M4 7.99999C4 5.23857 6.23858 3 9 3H243C245.761 3 248 5.23858 248 8V170.016H4V7.99999Z" fill="white"/>
<path d="M4 16L4 32L248 32L248 16L4 16Z" fill="#1E293B"/>
<path d="M4 8C4 5.23858 6.23858 3 9 3H243C245.761 3 248 5.23858 248 8V16H4V8Z" fill="white"/>
<rect x="211" y="6" width="19" height="3" rx="1.5" fill="#D9D9D9"/>
<rect x="223" y="11" width="7" height="2" rx="1" fill="#D9D9D9"/>
<rect x="202" y="7" width="4" height="4" fill="#D9D9D9"/>
<rect x="194" y="7" width="4" height="4" fill="#D9D9D9"/>
<rect x="186" y="7" width="4" height="4" fill="#D9D9D9"/>
<rect x="178" y="7" width="4" height="4" fill="#D9D9D9"/>
<rect x="170" y="7" width="4" height="4" fill="#D9D9D9"/>
<rect x="162" y="7" width="4" height="4" fill="#D9D9D9"/>
<circle cx="235.5" cy="9.5" r="4.5" fill="#D9D9D9"/>
<rect opacity="0.8" x="31" y="23" width="19" height="2" rx="1" fill="white"/>
<rect opacity="0.8" x="24" y="22" width="4" height="4" fill="white"/>
<rect opacity="0.8" x="58" y="22" width="4" height="4" fill="white"/>
<rect opacity="0.8" x="65" y="23" width="10" height="2" rx="1" fill="white"/>
<rect opacity="0.8" x="83" y="22" width="4" height="4" fill="white"/>
<rect opacity="0.8" x="90" y="23" width="20" height="2" rx="1" fill="white"/>
<rect opacity="0.8" x="118" y="22" width="4" height="4" fill="white"/>
<rect opacity="0.8" x="125" y="23" width="9" height="2" rx="1" fill="white"/>
<rect opacity="0.8" x="142" y="22" width="4" height="4" fill="white"/>
<rect opacity="0.8" x="149" y="23" width="12" height="2" rx="1" fill="white"/>
<rect opacity="0.8" x="169" y="22" width="4" height="4" fill="white"/>
<rect opacity="0.8" x="176" y="23" width="14" height="2" rx="1" fill="white"/>
</g>
<path d="M25.398 11.208H26.742V12H24.372V7.788H25.398V11.208ZM29.2234 12.042C28.8274 12.042 28.4634 11.95 28.1314 11.766C27.8034 11.582 27.5414 11.326 27.3454 10.998C27.1534 10.666 27.0574 10.294 27.0574 9.882C27.0574 9.47 27.1534 9.1 27.3454 8.772C27.5414 8.444 27.8034 8.188 28.1314 8.004C28.4634 7.82 28.8274 7.728 29.2234 7.728C29.6194 7.728 29.9814 7.82 30.3094 8.004C30.6414 8.188 30.9014 8.444 31.0894 8.772C31.2814 9.1 31.3774 9.47 31.3774 9.882C31.3774 10.294 31.2814 10.666 31.0894 10.998C30.8974 11.326 30.6374 11.582 30.3094 11.766C29.9814 11.95 29.6194 12.042 29.2234 12.042ZM29.2234 11.106C29.5594 11.106 29.8274 10.994 30.0274 10.77C30.2314 10.546 30.3334 10.25 30.3334 9.882C30.3334 9.51 30.2314 9.214 30.0274 8.994C29.8274 8.77 29.5594 8.658 29.2234 8.658C28.8834 8.658 28.6114 8.768 28.4074 8.988C28.2074 9.208 28.1074 9.506 28.1074 9.882C28.1074 10.254 28.2074 10.552 28.4074 10.776C28.6114 10.996 28.8834 11.106 29.2234 11.106ZM34.7442 9.12C34.6682 8.98 34.5582 8.874 34.4142 8.802C34.2742 8.726 34.1082 8.688 33.9162 8.688C33.5842 8.688 33.3182 8.798 33.1182 9.018C32.9182 9.234 32.8182 9.524 32.8182 9.888C32.8182 10.276 32.9222 10.58 33.1302 10.8C33.3422 11.016 33.6322 11.124 34.0002 11.124C34.2522 11.124 34.4642 11.06 34.6362 10.932C34.8122 10.804 34.9402 10.62 35.0202 10.38H33.7182V9.624H35.9502V10.578C35.8742 10.834 35.7442 11.072 35.5602 11.292C35.3802 11.512 35.1502 11.69 34.8702 11.826C34.5902 11.962 34.2742 12.03 33.9222 12.03C33.5062 12.03 33.1342 11.94 32.8062 11.76C32.4822 11.576 32.2282 11.322 32.0442 10.998C31.8642 10.674 31.7742 10.304 31.7742 9.888C31.7742 9.472 31.8642 9.102 32.0442 8.778C32.2282 8.45 32.4822 8.196 32.8062 8.016C33.1302 7.832 33.5002 7.74 33.9162 7.74C34.4202 7.74 34.8442 7.862 35.1882 8.106C35.5362 8.35 35.7662 8.688 35.8782 9.12H34.7442ZM38.5105 12.042C38.1145 12.042 37.7505 11.95 37.4185 11.766C37.0905 11.582 36.8285 11.326 36.6325 10.998C36.4405 10.666 36.3445 10.294 36.3445 9.882C36.3445 9.47 36.4405 9.1 36.6325 8.772C36.8285 8.444 37.0905 8.188 37.4185 8.004C37.7505 7.82 38.1145 7.728 38.5105 7.728C38.9065 7.728 39.2685 7.82 39.5965 8.004C39.9285 8.188 40.1885 8.444 40.3765 8.772C40.5685 9.1 40.6645 9.47 40.6645 9.882C40.6645 10.294 40.5685 10.666 40.3765 10.998C40.1845 11.326 39.9245 11.582 39.5965 11.766C39.2685 11.95 38.9065 12.042 38.5105 12.042ZM38.5105 11.106C38.8465 11.106 39.1145 10.994 39.3145 10.77C39.5185 10.546 39.6205 10.25 39.6205 9.882C39.6205 9.51 39.5185 9.214 39.3145 8.994C39.1145 8.77 38.8465 8.658 38.5105 8.658C38.1705 8.658 37.8985 8.768 37.6945 8.988C37.4945 9.208 37.3945 9.506 37.3945 9.882C37.3945 10.254 37.4945 10.552 37.6945 10.776C37.8985 10.996 38.1705 11.106 38.5105 11.106Z" fill="#1E293B"/>
<defs>
<filter id="filter0_d_1046_37706" x="0" y="0" width="252" height="175.016" filterUnits="userSpaceOnUse" color-interpolation-filters="sRGB">
<feFlood flood-opacity="0" result="BackgroundImageFix"/>
<feColorMatrix in="SourceAlpha" type="matrix" values="0 0 0 0 0 0 0 0 0 0 0 0 0 0 0 0 0 0 127 0" result="hardAlpha"/>
<feOffset dy="1"/>
<feGaussianBlur stdDeviation="2"/>
<feComposite in2="hardAlpha" operator="out"/>
<feColorMatrix type="matrix" values="0 0 0 0 0 0 0 0 0 0 0 0 0 0 0 0 0 0 0.16 0"/>
<feBlend mode="normal" in2="BackgroundImageFix" result="effect1_dropShadow_1046_37706"/>
<feBlend mode="normal" in="SourceGraphic" in2="effect1_dropShadow_1046_37706" result="shape"/>
</filter>
</defs>
</svg>
