<svg width="252" height="176" viewBox="0 0 252 176" fill="none" xmlns="http://www.w3.org/2000/svg">
<g filter="url(#filter0_d_1046_37834)">
<path d="M4 7.99999C4 5.23857 6.23858 3 9 3H243C245.761 3 248 5.23858 248 8V170.016H4V7.99999Z" fill="#F1F5F9"/>
<path d="M17.0469 26.0469C17.0469 20.524 21.524 16.0469 27.0469 16.0469H224.951C230.473 16.0469 234.951 20.524 234.951 26.0469V146.967C234.951 152.49 230.473 156.967 224.951 156.967H27.0469C21.524 156.967 17.0469 152.49 17.0469 146.967V26.0469Z" fill="white"/>
<path d="M17.0469 26.0469C17.0469 20.524 21.524 16.0469 27.0469 16.0469H125.999V156.967H27.0469C21.524 156.967 17.0469 152.49 17.0469 146.967V26.0469Z" fill="#1E293B"/>
<g opacity="0.8">
<circle cx="71.1983" cy="86.503" r="29.8155" stroke="white" stroke-width="3"/>
<circle cx="65.8161" cy="78.1833" r="5.83957" stroke="white" stroke-width="3"/>
<path d="M57.5 113.413L86.1243 80.1406L100.314 93.3519" stroke="white" stroke-width="3"/>
<path d="M43.5547 99.4654L53.0961 88.9453L67.0413 101.912" stroke="white" stroke-width="3"/>
</g>
<path d="M150.148 132.923C150.148 130.795 151.873 129.07 154.001 129.07H163.376C165.504 129.07 167.228 130.795 167.228 132.923C167.228 134.838 165.676 136.39 163.761 136.39H153.616C151.701 136.39 150.148 134.838 150.148 132.923Z" fill="#D9D9D9"/>
<path d="M172.109 132.923C172.109 130.795 173.834 129.07 175.962 129.07H185.337C187.464 129.07 189.189 130.795 189.189 132.923C189.189 134.838 187.637 136.39 185.722 136.39H175.577C173.662 136.39 172.109 134.838 172.109 132.923Z" fill="#D9D9D9"/>
<path d="M150.148 108.297C150.148 107.192 151.044 106.297 152.148 106.297H209.148C210.253 106.297 211.148 107.192 211.148 108.297V111.617C211.148 112.721 210.253 113.617 209.148 113.617H152.148C151.044 113.617 150.148 112.721 150.148 111.617V108.297Z" fill="#D9D9D9"/>
<path d="M194.07 132.923C194.07 130.795 195.795 129.07 197.923 129.07H207.298C209.425 129.07 211.15 130.795 211.15 132.923C211.15 134.838 209.598 136.39 207.683 136.39H197.538C195.623 136.39 194.07 134.838 194.07 132.923Z" fill="#D9D9D9"/>
<path opacity="0.1" d="M150.148 99.7891L173.735 99.7891" stroke="black" stroke-width="2" stroke-linecap="round"/>
<path opacity="0.1" d="M150.148 61.5625L173.735 61.5625" stroke="black" stroke-width="2" stroke-linecap="round"/>
<path opacity="0.2" d="M150.148 54.2422L173.735 54.2422" stroke="black" stroke-width="5" stroke-linecap="round"/>
<path opacity="0.2" d="M150.648 70.0703C150.648 69.2419 151.32 68.5703 152.148 68.5703H209.148C209.977 68.5703 210.648 69.2419 210.648 70.0703V75.8303C210.648 76.6587 209.977 77.3303 209.148 77.3303H152.148C151.32 77.3303 150.648 76.6587 150.648 75.8303V70.0703Z" stroke="black"/>
<path opacity="0.2" d="M150.648 83.8906C150.648 83.0622 151.32 82.3906 152.148 82.3906H209.148C209.977 82.3906 210.648 83.0622 210.648 83.8906V89.6506C210.648 90.4791 209.977 91.1506 209.148 91.1506H152.148C151.32 91.1506 150.648 90.4791 150.648 89.6506V83.8906Z" stroke="black"/>
</g>
<defs>
<filter id="filter0_d_1046_37834" x="0" y="0" width="252" height="175.016" filterUnits="userSpaceOnUse" color-interpolation-filters="sRGB">
<feFlood flood-opacity="0" result="BackgroundImageFix"/>
<feColorMatrix in="SourceAlpha" type="matrix" values="0 0 0 0 0 0 0 0 0 0 0 0 0 0 0 0 0 0 127 0" result="hardAlpha"/>
<feOffset dy="1"/>
<feGaussianBlur stdDeviation="2"/>
<feComposite in2="hardAlpha" operator="out"/>
<feColorMatrix type="matrix" values="0 0 0 0 0 0 0 0 0 0 0 0 0 0 0 0 0 0 0.16 0"/>
<feBlend mode="normal" in2="BackgroundImageFix" result="effect1_dropShadow_1046_37834"/>
<feBlend mode="normal" in="SourceGraphic" in2="effect1_dropShadow_1046_37834" result="shape"/>
</filter>
</defs>
</svg>
