<svg width="252" height="176" viewBox="0 0 252 176" fill="none" xmlns="http://www.w3.org/2000/svg">
<g filter="url(#filter0_d_2577_34)">
<path d="M4 7.99999C4 5.23857 6.23858 3 9 3H243C245.761 3 248 5.23858 248 8V170.016H4V7.99999Z" fill="#F1F5F9"/>
</g>
<rect x="17.0469" y="16.0469" width="217.904" height="140.92" rx="10" fill="white"/>
<path d="M126.047 16.0469H224.999C230.522 16.0469 234.999 20.524 234.999 26.0469V146.967C234.999 152.49 230.522 156.967 224.999 156.967H126.047V16.0469Z" fill="#1E293B"/>
<g opacity="0.8">
<circle cx="180.198" cy="86.503" r="29.8155" stroke="white" stroke-width="3"/>
<circle cx="174.816" cy="78.1833" r="5.83957" stroke="white" stroke-width="3"/>
<path d="M166.5 113.413L195.124 80.1406L209.314 93.3519" stroke="white" stroke-width="3"/>
<path d="M152.555 99.4654L162.096 88.9453L176.041 101.912" stroke="white" stroke-width="3"/>
</g>
<rect x="41.0469" y="129.07" width="17.08" height="7.32" rx="3.66" fill="#D9D9D9"/>
<rect x="63.0078" y="129.07" width="17.08" height="7.32" rx="3.66" fill="#D9D9D9"/>
<rect x="41.0469" y="106.297" width="61" height="7.32" rx="3.66" fill="#D9D9D9"/>
<rect x="84.9688" y="129.07" width="17.08" height="7.32" rx="3.66" fill="#D9D9D9"/>
<path opacity="0.1" d="M41.0469 99.7891L64.6335 99.7891" stroke="black" stroke-width="2" stroke-linecap="round"/>
<path opacity="0.1" d="M41.0469 61.5625L64.6335 61.5625" stroke="black" stroke-width="2" stroke-linecap="round"/>
<path opacity="0.2" d="M41.0469 54.2422L64.6335 54.2422" stroke="black" stroke-width="5" stroke-linecap="round"/>
<rect opacity="0.2" x="41.5469" y="68.5703" width="60" height="8.76" rx="1.5" stroke="black"/>
<rect opacity="0.2" x="41.5469" y="82.3906" width="60" height="8.76" rx="1.5" stroke="black"/>
<defs>
<filter id="filter0_d_2577_34" x="0" y="0" width="252" height="175.016" filterUnits="userSpaceOnUse" color-interpolation-filters="sRGB">
<feFlood flood-opacity="0" result="BackgroundImageFix"/>
<feColorMatrix in="SourceAlpha" type="matrix" values="0 0 0 0 0 0 0 0 0 0 0 0 0 0 0 0 0 0 127 0" result="hardAlpha"/>
<feOffset dy="1"/>
<feGaussianBlur stdDeviation="2"/>
<feComposite in2="hardAlpha" operator="out"/>
<feColorMatrix type="matrix" values="0 0 0 0 0 0 0 0 0 0 0 0 0 0 0 0 0 0 0.16 0"/>
<feBlend mode="normal" in2="BackgroundImageFix" result="effect1_dropShadow_2577_34"/>
<feBlend mode="normal" in="SourceGraphic" in2="effect1_dropShadow_2577_34" result="shape"/>
</filter>
</defs>
</svg>
