<svg width="252" height="176" viewBox="0 0 252 176" fill="none" xmlns="http://www.w3.org/2000/svg">
<g filter="url(#filter0_d_1046_37854)">
<path d="M4 7.99999C4 5.23857 6.23858 3 9 3H243C245.761 3 248 5.23858 248 8V170.016H4V7.99999Z" fill="#F1F5F9"/>
<path d="M72 26C72 20.4771 76.4772 16 82 16H171C176.523 16 181 20.4772 181 26V147C181 152.523 176.523 157 171 157H82C76.4772 157 72 152.523 72 147V26Z" fill="white"/>
<path d="M96.1484 132.923C96.1484 130.795 97.8733 129.07 100.001 129.07H109.376C111.504 129.07 113.228 130.795 113.228 132.923C113.228 134.838 111.676 136.39 109.761 136.39H99.6158C97.7008 136.39 96.1484 134.838 96.1484 132.923Z" fill="#D9D9D9"/>
<path d="M118.109 132.923C118.109 130.795 119.834 129.07 121.962 129.07H131.337C133.464 129.07 135.189 130.795 135.189 132.923C135.189 134.838 133.637 136.39 131.722 136.39H121.577C119.662 136.39 118.109 134.838 118.109 132.923Z" fill="#D9D9D9"/>
<path d="M96.1484 108.297C96.1484 107.192 97.0439 106.297 98.1484 106.297H155.148C156.253 106.297 157.148 107.192 157.148 108.297V111.617C157.148 112.721 156.253 113.617 155.148 113.617H98.1484C97.0439 113.617 96.1484 112.721 96.1484 111.617V108.297Z" fill="#D9D9D9"/>
<path d="M140.07 132.923C140.07 130.795 141.795 129.07 143.923 129.07H153.298C155.425 129.07 157.15 130.795 157.15 132.923C157.15 134.838 155.598 136.39 153.683 136.39H143.538C141.623 136.39 140.07 134.838 140.07 132.923Z" fill="#D9D9D9"/>
<path opacity="0.1" d="M96.1484 99.7891L119.735 99.7891" stroke="black" stroke-width="2" stroke-linecap="round"/>
<path opacity="0.1" d="M96.1484 61.5625L119.735 61.5625" stroke="black" stroke-width="2" stroke-linecap="round"/>
<path opacity="0.2" d="M96.1484 54.2422L119.735 54.2422" stroke="black" stroke-width="5" stroke-linecap="round"/>
<path opacity="0.2" d="M96.6484 70.0703C96.6484 69.2419 97.32 68.5703 98.1484 68.5703H155.148C155.977 68.5703 156.648 69.2419 156.648 70.0703V75.8303C156.648 76.6587 155.977 77.3303 155.148 77.3303H98.1484C97.32 77.3303 96.6484 76.6587 96.6484 75.8303V70.0703Z" stroke="black"/>
<path opacity="0.2" d="M96.6484 83.8906C96.6484 83.0622 97.32 82.3906 98.1484 82.3906H155.148C155.977 82.3906 156.648 83.0622 156.648 83.8906V89.6506C156.648 90.4791 155.977 91.1506 155.148 91.1506H98.1484C97.32 91.1506 96.6484 90.4791 96.6484 89.6506V83.8906Z" stroke="black"/>
</g>
<defs>
<filter id="filter0_d_1046_37854" x="0" y="0" width="252" height="175.016" filterUnits="userSpaceOnUse" color-interpolation-filters="sRGB">
<feFlood flood-opacity="0" result="BackgroundImageFix"/>
<feColorMatrix in="SourceAlpha" type="matrix" values="0 0 0 0 0 0 0 0 0 0 0 0 0 0 0 0 0 0 127 0" result="hardAlpha"/>
<feOffset dy="1"/>
<feGaussianBlur stdDeviation="2"/>
<feComposite in2="hardAlpha" operator="out"/>
<feColorMatrix type="matrix" values="0 0 0 0 0 0 0 0 0 0 0 0 0 0 0 0 0 0 0.16 0"/>
<feBlend mode="normal" in2="BackgroundImageFix" result="effect1_dropShadow_1046_37854"/>
<feBlend mode="normal" in="SourceGraphic" in2="effect1_dropShadow_1046_37854" result="shape"/>
</filter>
</defs>
</svg>
